<mxfile host="app.diagrams.net" agent="Mozilla/5.0 (Windows NT 10.0; Win64; x64) AppleWebKit/537.36 (KHTML, like Gecko) Chrome/140.0.0.0 Safari/537.36" version="28.2.5">
  <diagram name="Page-1" id="OxBG0PVo8zpO9smlQVnz">
    <mxGraphModel dx="2158" dy="2993" grid="1" gridSize="10" guides="1" tooltips="1" connect="1" arrows="1" fold="1" page="1" pageScale="1" pageWidth="850" pageHeight="1100" math="0" shadow="0">
      <root>
        <mxCell id="0" />
        <mxCell id="1" parent="0" />
        <mxCell id="twf9IwWUZ9aiVdwsOqIf-1" value="Реєстрація облікового запису" style="ellipse;whiteSpace=wrap;html=1;" parent="1" vertex="1">
          <mxGeometry x="110" y="-1080" width="140" height="70" as="geometry" />
        </mxCell>
        <mxCell id="AXd0OOYE8Sb2BsoKkWfM-6" style="rounded=0;orthogonalLoop=1;jettySize=auto;html=1;exitX=1;exitY=0.3333333333333333;exitDx=0;exitDy=0;exitPerimeter=0;entryX=0;entryY=1;entryDx=0;entryDy=0;endArrow=none;endFill=0;" parent="1" source="twf9IwWUZ9aiVdwsOqIf-2" target="twf9IwWUZ9aiVdwsOqIf-12" edge="1">
          <mxGeometry relative="1" as="geometry" />
        </mxCell>
        <mxCell id="twf9IwWUZ9aiVdwsOqIf-2" value="Клієнт" style="shape=umlActor;html=1;verticalLabelPosition=bottom;verticalAlign=top;align=center;" parent="1" vertex="1">
          <mxGeometry x="-40" y="-780" width="30" height="60" as="geometry" />
        </mxCell>
        <mxCell id="AXd0OOYE8Sb2BsoKkWfM-26" style="rounded=0;orthogonalLoop=1;jettySize=auto;html=1;entryX=0;entryY=0.5;entryDx=0;entryDy=0;endArrow=none;endFill=0;" parent="1" source="twf9IwWUZ9aiVdwsOqIf-5" target="twf9IwWUZ9aiVdwsOqIf-17" edge="1">
          <mxGeometry relative="1" as="geometry">
            <mxPoint x="70" y="-440" as="sourcePoint" />
          </mxGeometry>
        </mxCell>
        <mxCell id="twf9IwWUZ9aiVdwsOqIf-5" value="Видавець" style="shape=umlActor;html=1;verticalLabelPosition=bottom;verticalAlign=top;align=center;" parent="1" vertex="1">
          <mxGeometry x="-30" y="-470" width="30" height="60" as="geometry" />
        </mxCell>
        <mxCell id="AXd0OOYE8Sb2BsoKkWfM-29" style="rounded=0;orthogonalLoop=1;jettySize=auto;html=1;entryX=1;entryY=0.5;entryDx=0;entryDy=0;endArrow=none;endFill=0;" parent="1" target="twf9IwWUZ9aiVdwsOqIf-23" edge="1">
          <mxGeometry relative="1" as="geometry">
            <mxPoint x="1050" y="-385" as="sourcePoint" />
          </mxGeometry>
        </mxCell>
        <mxCell id="twf9IwWUZ9aiVdwsOqIf-6" value="Адміністратор" style="shape=umlActor;html=1;verticalLabelPosition=bottom;verticalAlign=top;align=center;" parent="1" vertex="1">
          <mxGeometry x="1050" y="-415" width="30" height="60" as="geometry" />
        </mxCell>
        <mxCell id="AXd0OOYE8Sb2BsoKkWfM-19" style="rounded=0;orthogonalLoop=1;jettySize=auto;html=1;entryX=1;entryY=0.5;entryDx=0;entryDy=0;endArrow=none;endFill=0;" parent="1" source="twf9IwWUZ9aiVdwsOqIf-8" target="twf9IwWUZ9aiVdwsOqIf-25" edge="1">
          <mxGeometry relative="1" as="geometry" />
        </mxCell>
        <mxCell id="twf9IwWUZ9aiVdwsOqIf-8" value="Платіжний шлюз" style="shape=umlActor;html=1;verticalLabelPosition=bottom;verticalAlign=top;align=center;" parent="1" vertex="1">
          <mxGeometry x="1050" y="-755" width="30" height="60" as="geometry" />
        </mxCell>
        <mxCell id="AXd0OOYE8Sb2BsoKkWfM-21" style="rounded=0;orthogonalLoop=1;jettySize=auto;html=1;entryX=1;entryY=0.5;entryDx=0;entryDy=0;endArrow=none;endFill=0;" parent="1" source="twf9IwWUZ9aiVdwsOqIf-10" target="twf9IwWUZ9aiVdwsOqIf-27" edge="1">
          <mxGeometry relative="1" as="geometry" />
        </mxCell>
        <mxCell id="twf9IwWUZ9aiVdwsOqIf-10" value="Сервіс цифрової бібліотеки" style="shape=umlActor;html=1;verticalLabelPosition=bottom;verticalAlign=top;align=center;" parent="1" vertex="1">
          <mxGeometry x="1050" y="-635" width="30" height="60" as="geometry" />
        </mxCell>
        <mxCell id="twf9IwWUZ9aiVdwsOqIf-11" value="Вийти/ввійти в обліковий запис" style="ellipse;whiteSpace=wrap;html=1;" parent="1" vertex="1">
          <mxGeometry x="340" y="-1000" width="140" height="70" as="geometry" />
        </mxCell>
        <mxCell id="twf9IwWUZ9aiVdwsOqIf-12" value="Керує профілем" style="ellipse;whiteSpace=wrap;html=1;" parent="1" vertex="1">
          <mxGeometry x="110" y="-950" width="140" height="70" as="geometry" />
        </mxCell>
        <mxCell id="twf9IwWUZ9aiVdwsOqIf-13" value="Додає книги до кошика" style="ellipse;whiteSpace=wrap;html=1;" parent="1" vertex="1">
          <mxGeometry x="390" y="-860" width="140" height="70" as="geometry" />
        </mxCell>
        <mxCell id="twf9IwWUZ9aiVdwsOqIf-14" value="Отримує цифрову книгу" style="ellipse;whiteSpace=wrap;html=1;" parent="1" vertex="1">
          <mxGeometry x="170" y="-640" width="140" height="70" as="geometry" />
        </mxCell>
        <mxCell id="twf9IwWUZ9aiVdwsOqIf-15" value="Додати відгук" style="ellipse;whiteSpace=wrap;html=1;" parent="1" vertex="1">
          <mxGeometry x="390" y="-560" width="140" height="70" as="geometry" />
        </mxCell>
        <mxCell id="twf9IwWUZ9aiVdwsOqIf-17" value="Подає книгу" style="ellipse;whiteSpace=wrap;html=1;" parent="1" vertex="1">
          <mxGeometry x="170" y="-475" width="140" height="70" as="geometry" />
        </mxCell>
        <mxCell id="twf9IwWUZ9aiVdwsOqIf-18" value="Перегляд каталогу" style="ellipse;whiteSpace=wrap;html=1;" parent="1" vertex="1">
          <mxGeometry x="600" y="-860" width="140" height="70" as="geometry" />
        </mxCell>
        <mxCell id="twf9IwWUZ9aiVdwsOqIf-19" value="Оплачує замовлення" style="ellipse;whiteSpace=wrap;html=1;" parent="1" vertex="1">
          <mxGeometry x="390" y="-760" width="140" height="70" as="geometry" />
        </mxCell>
        <mxCell id="twf9IwWUZ9aiVdwsOqIf-20" value="Редагувати дані книги" style="ellipse;whiteSpace=wrap;html=1;" parent="1" vertex="1">
          <mxGeometry x="490" y="-475" width="140" height="70" as="geometry" />
        </mxCell>
        <mxCell id="twf9IwWUZ9aiVdwsOqIf-23" value="Керування книгами" style="ellipse;whiteSpace=wrap;html=1;" parent="1" vertex="1">
          <mxGeometry x="720" y="-420" width="140" height="70" as="geometry" />
        </mxCell>
        <mxCell id="twf9IwWUZ9aiVdwsOqIf-25" value="Обробляє оплату" style="ellipse;whiteSpace=wrap;html=1;" parent="1" vertex="1">
          <mxGeometry x="720" y="-760" width="140" height="70" as="geometry" />
        </mxCell>
        <mxCell id="twf9IwWUZ9aiVdwsOqIf-27" value="Надає доступ до куплених книг" style="ellipse;whiteSpace=wrap;html=1;" parent="1" vertex="1">
          <mxGeometry x="720" y="-640" width="140" height="70" as="geometry" />
        </mxCell>
        <mxCell id="AXd0OOYE8Sb2BsoKkWfM-2" value="&amp;lt;&amp;lt;include&amp;gt;&amp;gt;" style="edgeStyle=none;html=1;endArrow=open;verticalAlign=bottom;dashed=1;labelBackgroundColor=none;rounded=0;exitX=0.5;exitY=0;exitDx=0;exitDy=0;entryX=0.5;entryY=1;entryDx=0;entryDy=0;" parent="1" source="twf9IwWUZ9aiVdwsOqIf-12" target="twf9IwWUZ9aiVdwsOqIf-1" edge="1">
          <mxGeometry width="160" relative="1" as="geometry">
            <mxPoint x="320" y="-690" as="sourcePoint" />
            <mxPoint x="480" y="-690" as="targetPoint" />
          </mxGeometry>
        </mxCell>
        <mxCell id="AXd0OOYE8Sb2BsoKkWfM-3" value="&amp;lt;&amp;lt;include&amp;gt;&amp;gt;" style="edgeStyle=none;html=1;endArrow=open;verticalAlign=bottom;dashed=1;labelBackgroundColor=none;rounded=0;exitX=1;exitY=0.5;exitDx=0;exitDy=0;entryX=0;entryY=0.5;entryDx=0;entryDy=0;" parent="1" source="twf9IwWUZ9aiVdwsOqIf-12" target="twf9IwWUZ9aiVdwsOqIf-11" edge="1">
          <mxGeometry x="-0.0041" width="160" relative="1" as="geometry">
            <mxPoint x="270" y="-640" as="sourcePoint" />
            <mxPoint x="346" y="-740" as="targetPoint" />
            <mxPoint as="offset" />
          </mxGeometry>
        </mxCell>
        <mxCell id="AXd0OOYE8Sb2BsoKkWfM-5" value="Замовляє книгу" style="ellipse;whiteSpace=wrap;html=1;" parent="1" vertex="1">
          <mxGeometry x="170" y="-860" width="140" height="70" as="geometry" />
        </mxCell>
        <mxCell id="AXd0OOYE8Sb2BsoKkWfM-7" style="rounded=0;orthogonalLoop=1;jettySize=auto;html=1;exitX=1;exitY=0.3333333333333333;exitDx=0;exitDy=0;exitPerimeter=0;entryX=0;entryY=0.5;entryDx=0;entryDy=0;endArrow=none;endFill=0;" parent="1" source="twf9IwWUZ9aiVdwsOqIf-2" target="AXd0OOYE8Sb2BsoKkWfM-5" edge="1">
          <mxGeometry relative="1" as="geometry">
            <mxPoint x="110" y="-595" as="sourcePoint" />
            <mxPoint x="210" y="-650" as="targetPoint" />
          </mxGeometry>
        </mxCell>
        <mxCell id="AXd0OOYE8Sb2BsoKkWfM-8" style="rounded=0;orthogonalLoop=1;jettySize=auto;html=1;exitX=1;exitY=0.3333333333333333;exitDx=0;exitDy=0;exitPerimeter=0;entryX=0;entryY=0.5;entryDx=0;entryDy=0;endArrow=none;endFill=0;" parent="1" source="twf9IwWUZ9aiVdwsOqIf-2" target="twf9IwWUZ9aiVdwsOqIf-14" edge="1">
          <mxGeometry relative="1" as="geometry">
            <mxPoint x="100" y="-610" as="sourcePoint" />
            <mxPoint x="200" y="-575" as="targetPoint" />
          </mxGeometry>
        </mxCell>
        <mxCell id="AXd0OOYE8Sb2BsoKkWfM-9" value="&amp;lt;&amp;lt;extend&amp;gt;&amp;gt;&lt;br&gt;[За бажанням клієнта]" style="edgeStyle=none;html=1;startArrow=open;endArrow=none;startSize=12;verticalAlign=bottom;dashed=1;labelBackgroundColor=none;rounded=0;entryX=0;entryY=0.5;entryDx=0;entryDy=0;exitX=1;exitY=1;exitDx=0;exitDy=0;" parent="1" source="twf9IwWUZ9aiVdwsOqIf-14" target="twf9IwWUZ9aiVdwsOqIf-15" edge="1">
          <mxGeometry x="0.0759" y="-18" width="160" relative="1" as="geometry">
            <mxPoint x="520" y="550" as="sourcePoint" />
            <mxPoint x="680" y="550" as="targetPoint" />
            <mxPoint as="offset" />
          </mxGeometry>
        </mxCell>
        <mxCell id="AXd0OOYE8Sb2BsoKkWfM-11" value="&amp;lt;&amp;lt;extend&amp;gt;&amp;gt;&lt;br&gt;[За потреби клієнта]" style="edgeStyle=none;html=1;startArrow=open;endArrow=none;startSize=12;verticalAlign=bottom;dashed=1;labelBackgroundColor=none;rounded=0;exitX=0.5;exitY=0;exitDx=0;exitDy=0;entryX=0.5;entryY=1;entryDx=0;entryDy=0;" parent="1" source="twf9IwWUZ9aiVdwsOqIf-18" target="AXd0OOYE8Sb2BsoKkWfM-12" edge="1">
          <mxGeometry x="-0.1184" y="-8" width="160" relative="1" as="geometry">
            <mxPoint x="320" y="-450" as="sourcePoint" />
            <mxPoint x="740" y="-560" as="targetPoint" />
            <mxPoint as="offset" />
          </mxGeometry>
        </mxCell>
        <mxCell id="AXd0OOYE8Sb2BsoKkWfM-12" value="Пошук книг" style="ellipse;whiteSpace=wrap;html=1;" parent="1" vertex="1">
          <mxGeometry x="600" y="-1000" width="140" height="70" as="geometry" />
        </mxCell>
        <mxCell id="AXd0OOYE8Sb2BsoKkWfM-15" value="&amp;lt;&amp;lt;include&amp;gt;&amp;gt;" style="edgeStyle=none;html=1;endArrow=open;verticalAlign=bottom;dashed=1;labelBackgroundColor=none;rounded=0;exitX=1;exitY=0.5;exitDx=0;exitDy=0;entryX=0;entryY=0.5;entryDx=0;entryDy=0;" parent="1" source="twf9IwWUZ9aiVdwsOqIf-19" target="twf9IwWUZ9aiVdwsOqIf-25" edge="1">
          <mxGeometry x="-0.0041" width="160" relative="1" as="geometry">
            <mxPoint x="360" y="-870" as="sourcePoint" />
            <mxPoint x="460" y="-900" as="targetPoint" />
            <mxPoint as="offset" />
          </mxGeometry>
        </mxCell>
        <mxCell id="AXd0OOYE8Sb2BsoKkWfM-17" value="&amp;lt;&amp;lt;include&amp;gt;&amp;gt;" style="edgeStyle=none;html=1;endArrow=open;verticalAlign=bottom;dashed=1;labelBackgroundColor=none;rounded=0;exitX=1;exitY=0.5;exitDx=0;exitDy=0;entryX=0;entryY=0.5;entryDx=0;entryDy=0;" parent="1" source="twf9IwWUZ9aiVdwsOqIf-13" target="twf9IwWUZ9aiVdwsOqIf-18" edge="1">
          <mxGeometry x="-0.0041" width="160" relative="1" as="geometry">
            <mxPoint x="320" y="-630" as="sourcePoint" />
            <mxPoint x="530" y="-840" as="targetPoint" />
            <mxPoint as="offset" />
          </mxGeometry>
        </mxCell>
        <mxCell id="AXd0OOYE8Sb2BsoKkWfM-18" value="&amp;lt;&amp;lt;include&amp;gt;&amp;gt;" style="edgeStyle=none;html=1;endArrow=open;verticalAlign=bottom;dashed=1;labelBackgroundColor=none;rounded=0;exitX=1;exitY=1;exitDx=0;exitDy=0;entryX=0;entryY=0;entryDx=0;entryDy=0;" parent="1" source="AXd0OOYE8Sb2BsoKkWfM-5" target="twf9IwWUZ9aiVdwsOqIf-19" edge="1">
          <mxGeometry x="-0.0041" width="160" relative="1" as="geometry">
            <mxPoint x="370" y="-1100" as="sourcePoint" />
            <mxPoint x="441" y="-1045" as="targetPoint" />
            <mxPoint as="offset" />
          </mxGeometry>
        </mxCell>
        <mxCell id="AXd0OOYE8Sb2BsoKkWfM-27" value="&amp;lt;&amp;lt;extend&amp;gt;&amp;gt;&lt;br&gt;[За потреби видавця]" style="edgeStyle=none;html=1;startArrow=open;endArrow=none;startSize=12;verticalAlign=bottom;dashed=1;labelBackgroundColor=none;rounded=0;entryX=0;entryY=0.5;entryDx=0;entryDy=0;exitX=1;exitY=0.5;exitDx=0;exitDy=0;" parent="1" source="twf9IwWUZ9aiVdwsOqIf-17" target="twf9IwWUZ9aiVdwsOqIf-20" edge="1">
          <mxGeometry x="0.0575" y="-17" width="160" relative="1" as="geometry">
            <mxPoint x="320" y="-540" as="sourcePoint" />
            <mxPoint x="431" y="-475" as="targetPoint" />
            <mxPoint as="offset" />
          </mxGeometry>
        </mxCell>
        <mxCell id="AXd0OOYE8Sb2BsoKkWfM-35" value="Підтверджує книги" style="ellipse;whiteSpace=wrap;html=1;" parent="1" vertex="1">
          <mxGeometry x="490" y="-350" width="140" height="70" as="geometry" />
        </mxCell>
        <mxCell id="AXd0OOYE8Sb2BsoKkWfM-36" value="Видаляє книги" style="ellipse;whiteSpace=wrap;html=1;" parent="1" vertex="1">
          <mxGeometry x="720" y="-290" width="140" height="70" as="geometry" />
        </mxCell>
        <mxCell id="AXd0OOYE8Sb2BsoKkWfM-37" value="Керує категоріями" style="ellipse;whiteSpace=wrap;html=1;" parent="1" vertex="1">
          <mxGeometry x="720" y="-530" width="140" height="70" as="geometry" />
        </mxCell>
        <mxCell id="AXd0OOYE8Sb2BsoKkWfM-38" value="&amp;lt;&amp;lt;include&amp;gt;&amp;gt;" style="edgeStyle=none;html=1;endArrow=open;verticalAlign=bottom;dashed=1;labelBackgroundColor=none;rounded=0;exitX=0;exitY=0.5;exitDx=0;exitDy=0;entryX=1;entryY=0.5;entryDx=0;entryDy=0;" parent="1" source="twf9IwWUZ9aiVdwsOqIf-23" target="AXd0OOYE8Sb2BsoKkWfM-35" edge="1">
          <mxGeometry x="-0.0041" width="160" relative="1" as="geometry">
            <mxPoint x="650" y="-120" as="sourcePoint" />
            <mxPoint x="840" y="-65" as="targetPoint" />
            <mxPoint as="offset" />
          </mxGeometry>
        </mxCell>
        <mxCell id="AXd0OOYE8Sb2BsoKkWfM-39" value="&amp;lt;&amp;lt;include&amp;gt;&amp;gt;" style="edgeStyle=none;html=1;endArrow=open;verticalAlign=bottom;dashed=1;labelBackgroundColor=none;rounded=0;exitX=0.5;exitY=1;exitDx=0;exitDy=0;entryX=0.5;entryY=0;entryDx=0;entryDy=0;" parent="1" source="twf9IwWUZ9aiVdwsOqIf-23" target="AXd0OOYE8Sb2BsoKkWfM-36" edge="1">
          <mxGeometry x="-0.0041" width="160" relative="1" as="geometry">
            <mxPoint x="610" y="-40" as="sourcePoint" />
            <mxPoint x="720" y="20" as="targetPoint" />
            <mxPoint as="offset" />
          </mxGeometry>
        </mxCell>
        <mxCell id="d8rtKOvxy6KUa1lXJKoe-1" value="&amp;lt;&amp;lt;include&amp;gt;&amp;gt;" style="edgeStyle=none;html=1;endArrow=open;verticalAlign=bottom;dashed=1;labelBackgroundColor=none;rounded=0;exitX=1;exitY=0.5;exitDx=0;exitDy=0;entryX=0;entryY=0.5;entryDx=0;entryDy=0;" edge="1" parent="1" source="AXd0OOYE8Sb2BsoKkWfM-5" target="twf9IwWUZ9aiVdwsOqIf-13">
          <mxGeometry x="-0.0041" width="160" relative="1" as="geometry">
            <mxPoint x="490" y="-760" as="sourcePoint" />
            <mxPoint x="520" y="-800" as="targetPoint" />
            <mxPoint as="offset" />
          </mxGeometry>
        </mxCell>
        <mxCell id="d8rtKOvxy6KUa1lXJKoe-3" value="&amp;lt;&amp;lt;include&amp;gt;&amp;gt;" style="edgeStyle=none;html=1;endArrow=open;verticalAlign=bottom;dashed=1;labelBackgroundColor=none;rounded=0;exitX=0;exitY=0.5;exitDx=0;exitDy=0;entryX=1;entryY=0.5;entryDx=0;entryDy=0;" edge="1" parent="1" source="twf9IwWUZ9aiVdwsOqIf-27" target="twf9IwWUZ9aiVdwsOqIf-14">
          <mxGeometry x="-0.0065" width="160" relative="1" as="geometry">
            <mxPoint x="590" y="-690" as="sourcePoint" />
            <mxPoint x="970" y="-675" as="targetPoint" />
            <mxPoint as="offset" />
          </mxGeometry>
        </mxCell>
        <mxCell id="d8rtKOvxy6KUa1lXJKoe-5" value="&amp;lt;&amp;lt;include&amp;gt;&amp;gt;" style="edgeStyle=none;html=1;endArrow=open;verticalAlign=bottom;dashed=1;labelBackgroundColor=none;rounded=0;exitX=1;exitY=1;exitDx=0;exitDy=0;entryX=0;entryY=0;entryDx=0;entryDy=0;" edge="1" parent="1" source="twf9IwWUZ9aiVdwsOqIf-19" target="twf9IwWUZ9aiVdwsOqIf-27">
          <mxGeometry x="-0.0041" width="160" relative="1" as="geometry">
            <mxPoint x="1070" y="-560" as="sourcePoint" />
            <mxPoint x="660" y="-570" as="targetPoint" />
            <mxPoint as="offset" />
          </mxGeometry>
        </mxCell>
        <mxCell id="d8rtKOvxy6KUa1lXJKoe-9" value="Шлюз аутентифікації" style="shape=umlActor;html=1;verticalLabelPosition=bottom;verticalAlign=top;align=center;" vertex="1" parent="1">
          <mxGeometry x="1050" y="-955" width="30" height="60" as="geometry" />
        </mxCell>
        <mxCell id="d8rtKOvxy6KUa1lXJKoe-15" style="edgeStyle=orthogonalEdgeStyle;rounded=0;orthogonalLoop=1;jettySize=auto;html=1;exitX=1;exitY=0.5;exitDx=0;exitDy=0;endArrow=none;endFill=0;" edge="1" parent="1" source="d8rtKOvxy6KUa1lXJKoe-10" target="d8rtKOvxy6KUa1lXJKoe-9">
          <mxGeometry relative="1" as="geometry" />
        </mxCell>
        <mxCell id="d8rtKOvxy6KUa1lXJKoe-10" value="Керує існуючими обліковими записами" style="ellipse;whiteSpace=wrap;html=1;" vertex="1" parent="1">
          <mxGeometry x="790" y="-960" width="140" height="70" as="geometry" />
        </mxCell>
        <mxCell id="d8rtKOvxy6KUa1lXJKoe-11" value="Додає новий запис" style="ellipse;whiteSpace=wrap;html=1;" vertex="1" parent="1">
          <mxGeometry x="790" y="-1080" width="140" height="70" as="geometry" />
        </mxCell>
        <mxCell id="d8rtKOvxy6KUa1lXJKoe-13" value="&amp;lt;&amp;lt;include&amp;gt;&amp;gt;" style="edgeStyle=none;html=1;endArrow=open;verticalAlign=bottom;dashed=1;labelBackgroundColor=none;rounded=0;exitX=0.5;exitY=0;exitDx=0;exitDy=0;entryX=0.5;entryY=1;entryDx=0;entryDy=0;" edge="1" parent="1" source="d8rtKOvxy6KUa1lXJKoe-10" target="d8rtKOvxy6KUa1lXJKoe-11">
          <mxGeometry x="-0.0041" width="160" relative="1" as="geometry">
            <mxPoint x="660" y="-730" as="sourcePoint" />
            <mxPoint x="850" y="-730" as="targetPoint" />
            <mxPoint as="offset" />
          </mxGeometry>
        </mxCell>
        <mxCell id="d8rtKOvxy6KUa1lXJKoe-14" value="&amp;lt;&amp;lt;include&amp;gt;&amp;gt;" style="edgeStyle=none;html=1;endArrow=open;verticalAlign=bottom;dashed=1;labelBackgroundColor=none;rounded=0;exitX=0;exitY=0.5;exitDx=0;exitDy=0;entryX=1;entryY=0.5;entryDx=0;entryDy=0;" edge="1" parent="1" source="d8rtKOvxy6KUa1lXJKoe-11" target="twf9IwWUZ9aiVdwsOqIf-1">
          <mxGeometry x="-0.0041" width="160" relative="1" as="geometry">
            <mxPoint x="1380" y="-894" as="sourcePoint" />
            <mxPoint x="1300" y="-930" as="targetPoint" />
            <mxPoint as="offset" />
          </mxGeometry>
        </mxCell>
        <mxCell id="d8rtKOvxy6KUa1lXJKoe-18" style="rounded=0;orthogonalLoop=1;jettySize=auto;html=1;entryX=1;entryY=0.5;entryDx=0;entryDy=0;endArrow=none;endFill=0;exitX=0;exitY=0.3333333333333333;exitDx=0;exitDy=0;exitPerimeter=0;" edge="1" parent="1" source="twf9IwWUZ9aiVdwsOqIf-6" target="AXd0OOYE8Sb2BsoKkWfM-37">
          <mxGeometry relative="1" as="geometry">
            <mxPoint x="1040" y="-380" as="sourcePoint" />
            <mxPoint x="960" y="-390" as="targetPoint" />
          </mxGeometry>
        </mxCell>
        <mxCell id="d8rtKOvxy6KUa1lXJKoe-19" value="&amp;lt;&amp;lt;include&amp;gt;&amp;gt;" style="edgeStyle=none;html=1;endArrow=open;verticalAlign=bottom;dashed=1;labelBackgroundColor=none;rounded=0;exitX=0;exitY=0.5;exitDx=0;exitDy=0;entryX=1;entryY=1;entryDx=0;entryDy=0;" edge="1" parent="1" source="AXd0OOYE8Sb2BsoKkWfM-35" target="twf9IwWUZ9aiVdwsOqIf-17">
          <mxGeometry x="-0.0041" width="160" relative="1" as="geometry">
            <mxPoint x="780" y="-290" as="sourcePoint" />
            <mxPoint x="690" y="-220" as="targetPoint" />
            <mxPoint as="offset" />
          </mxGeometry>
        </mxCell>
      </root>
    </mxGraphModel>
  </diagram>
</mxfile>
